<?xml version="1.0" encoding="iso-8859-1"?>
<!-- Generator: Adobe Illustrator 19.0.0, SVG Export Plug-In . SVG Version: 6.00 Build 0)  -->
<svg version="1.1" id="Layer_1" xmlns="http://www.w3.org/2000/svg" xmlns:xlink="http://www.w3.org/1999/xlink" x="0px" y="0px"
	 viewBox="0 0 512 512" style="enable-background:new 0 0 512 512;" xml:space="preserve">
<g>
	<g>
		<path fill="#D0A245" d="M426.667,0h-320C83.146,0,64,19.135,64,42.667v42.667H53.333c-5.896,0-10.667,4.771-10.667,10.667
			s4.771,10.667,10.667,10.667H96c5.875,0,10.667,4.781,10.667,10.667c0,5.885-4.792,10.667-10.667,10.667H74.667
			C68.771,128,64,132.771,64,138.667V192H53.333c-5.896,0-10.667,4.771-10.667,10.667c0,5.896,4.771,10.667,10.667,10.667H96
			c5.875,0,10.667,4.781,10.667,10.667S101.875,234.667,96,234.667H74.667c-5.896,0-10.667,4.771-10.667,10.667v53.333H53.333
			c-5.896,0-10.667,4.771-10.667,10.667c0,5.896,4.771,10.667,10.667,10.667H96c5.875,0,10.667,4.781,10.667,10.667
			c0,5.885-4.792,10.667-10.667,10.667H74.667C68.771,341.333,64,346.104,64,352v53.333H53.333c-5.896,0-10.667,4.771-10.667,10.667
			c0,5.896,4.771,10.667,10.667,10.667H96c5.875,0,10.667,4.781,10.667,10.667c0,5.885-4.792,10.667-10.667,10.667H74.667
			C68.771,448,64,452.771,64,458.667v10.667C64,492.865,83.146,512,106.667,512h320c23.521,0,42.667-19.135,42.667-42.667V42.667
			C469.333,19.135,450.188,0,426.667,0z M405.333,338.958c0,13.073-10.646,23.708-23.708,23.708
			c-128.083,0-232.292-104.208-232.292-232.292c0-13.073,10.646-23.708,23.708-23.708h45.625c13.063,0,23.708,10.635,23.708,23.708
			c0,14.813,2.313,29.344,6.875,43.208c2.729,8.646,0.479,17.854-5.833,24.167l-18.688,24.885
			c16.063,29.51,34.896,48.344,64.625,64.615l26-19.635c5.25-5.365,14.729-7.615,23.208-4.698
			c13.708,4.521,28.25,6.844,43.063,6.844c13.063,0,23.708,10.635,23.708,23.708V338.958z"/>
	</g>
</g>
<g>
</g>
<g>
</g>
<g>
</g>
<g>
</g>
<g>
</g>
<g>
</g>
<g>
</g>
<g>
</g>
<g>
</g>
<g>
</g>
<g>
</g>
<g>
</g>
<g>
</g>
<g>
</g>
<g>
</g>
</svg>
